<?xml version="1.0" encoding="utf-8"?>
<svg xmlns="http://www.w3.org/2000/svg" fill="none" height="100%" overflow="visible" preserveAspectRatio="none" style="display: block;" viewBox="0 0 105.5 25.5" width="100%">
<g id="Icons">
<path d="M24.75 12.75C24.75 19.3774 19.3774 24.75 12.75 24.75M24.75 12.75C24.75 6.12258 19.3774 0.75 12.75 0.75M24.75 12.75H0.75M12.75 24.75C6.12258 24.75 0.75 19.3774 0.75 12.75M12.75 24.75C16.7377 24.75 19.9703 19.3774 19.9703 12.75C19.9703 6.12258 16.7377 0.75 12.75 0.75M12.75 24.75C8.76232 24.75 5.52966 19.3774 5.52966 12.75C5.52966 6.12258 8.76232 0.75 12.75 0.75M12.75 24.75C14.0979 24.75 15.1907 19.3774 15.1907 12.75C15.1907 6.12258 14.0979 0.75 12.75 0.75M12.75 24.75C11.4021 24.75 10.3093 19.3774 10.3093 12.75C10.3093 6.12258 11.4021 0.75 12.75 0.75M0.75 12.75C0.75 6.12258 6.12258 0.75 12.75 0.75M3.80085 4.8178H21.75M3.75 20.6822H21.75" id="Icon globe" stroke="var(--stroke-0, #0F0E0E)" stroke-width="1.5"/>
<path d="M60.8856 11.3263C60.2029 7.51193 56.9284 4.61441 52.8645 4.61441C48.3081 4.61441 44.6144 8.25684 44.6144 12.75C44.6144 17.2432 48.3081 20.8856 52.8645 20.8856C56.9284 20.8856 60.2029 17.9881 60.8856 14.1737M64.75 12.75C64.75 19.3774 59.3774 24.75 52.75 24.75C46.1226 24.75 40.75 19.3774 40.75 12.75C40.75 6.12258 46.1226 0.75 52.75 0.75C59.3774 0.75 64.75 6.12258 64.75 12.75Z" id="Icon copyright" stroke="var(--stroke-0, #0F0E0E)" stroke-width="1.5"/>
<g id="Icon target">
<path d="M104.75 12.75C104.75 19.3774 99.3774 24.75 92.75 24.75C86.1226 24.75 80.75 19.3774 80.75 12.75C80.75 6.12258 86.1226 0.75 92.75 0.75C99.3774 0.75 104.75 6.12258 104.75 12.75Z" stroke="var(--stroke-0, #0F0E0E)" stroke-width="1.5"/>
<path d="M96.8178 12.75C96.8178 14.9966 94.9966 16.8178 92.75 16.8178C90.5034 16.8178 88.6822 14.9966 88.6822 12.75C88.6822 10.5034 90.5034 8.6822 92.75 8.6822C94.9966 8.6822 96.8178 10.5034 96.8178 12.75Z" stroke="var(--stroke-0, #0F0E0E)" stroke-width="1.5"/>
<path d="M100.886 12.75C100.886 17.2432 97.2432 20.8856 92.75 20.8856C88.2568 20.8856 84.6144 17.2432 84.6144 12.75C84.6144 8.25684 88.2568 4.61441 92.75 4.61441C97.2432 4.61441 100.886 8.25684 100.886 12.75Z" stroke="var(--stroke-0, #0F0E0E)" stroke-width="1.5"/>
</g>
</g>
</svg>