<svg viewBox="0 0 740 80.439" xmlns="http://www.w3.org/2000/svg" xmlns:xlink="http://www.w3.org/1999/xlink" width="740.000000" height="80.438965" fill="none" customFrame="#000000">
	<path id="Vector" d="M723.268 78.9964C723.268 66.76 723.268 54.4221 723.268 41.9828C723.268 29.5436 723.268 17.2057 723.268 4.96924C726.039 4.96924 728.845 4.96924 731.684 4.96924C734.524 4.96924 737.296 4.96924 740 4.96924C740 17.2057 740 29.5436 740 41.9828C740 54.4221 740 66.76 740 78.9964C737.296 78.9964 734.524 78.9964 731.684 78.9964C728.845 78.9964 726.039 78.9964 723.268 78.9964Z" fill="rgb(246,248,251)" fill-rule="nonzero" />
	<path id="Vector" d="M698.918 78.9966C698.918 78.4557 698.918 77.9487 698.918 77.4755C698.918 76.9346 698.918 76.4276 698.918 75.9544C697.228 77.3741 695.301 78.4557 693.138 79.1994C691.042 80.0106 688.777 80.4163 686.343 80.4163C682.895 80.4163 679.65 79.774 676.608 78.4895C673.566 77.1375 670.862 75.2445 668.495 72.8107C666.197 70.3094 664.372 67.3686 663.02 63.9883C661.735 60.6081 661.093 56.856 661.093 52.7321C661.093 48.5406 661.735 44.7548 663.02 41.3745C664.372 37.9943 666.197 35.1211 668.495 32.7549C670.862 30.3212 673.566 28.462 676.608 27.1776C679.65 25.8255 682.862 25.1494 686.242 25.1494C688.676 25.1494 690.974 25.555 693.138 26.3663C695.301 27.11 697.228 28.1578 698.918 29.5099C698.918 28.9691 698.918 28.462 698.918 27.9888C698.918 27.5156 698.918 27.0423 698.918 26.5691C701.69 26.5691 704.495 26.5691 707.335 26.5691C710.174 26.5691 712.946 26.5691 715.65 26.5691C715.65 35.2225 715.65 43.9773 715.65 52.8335C715.65 61.6222 715.65 70.3432 715.65 78.9966C712.946 78.9966 710.174 78.9966 707.335 78.9966C704.495 78.9966 701.69 78.9966 698.918 78.9966ZM688.574 65.6108C691.819 65.6108 694.422 64.4278 696.383 62.0616C698.343 59.6954 699.323 56.5856 699.323 52.7321C699.323 48.8787 698.343 45.8027 696.383 43.5041C694.422 41.1379 691.819 39.9548 688.574 39.9548C685.262 39.9548 682.625 41.1041 680.664 43.4027C678.771 45.7013 677.825 48.8111 677.825 52.7321C677.825 56.6532 678.771 59.7968 680.664 62.163C682.625 64.4616 685.262 65.6108 688.574 65.6108Z" fill="rgb(246,248,251)" fill-rule="nonzero" />
	<path id="Vector" d="M647.996 20.5856C646.035 20.5856 644.243 20.1124 642.621 19.1659C641.066 18.2195 639.815 16.9688 638.869 15.4139C637.922 13.859 637.449 12.135 637.449 10.2421C637.449 8.34919 637.922 6.65907 638.869 5.17176C639.815 3.61685 641.066 2.36617 642.621 1.4197C644.243 0.473233 646.035 0 647.996 0C649.888 0 651.612 0.473233 653.167 1.4197C654.79 2.36617 656.074 3.61685 657.021 5.17176C657.967 6.65907 658.441 8.34919 658.441 10.2421C658.441 12.135 657.967 13.859 657.021 15.4139C656.074 16.9688 654.79 18.2195 653.167 19.1659C651.612 20.1124 649.888 20.5856 647.996 20.5856ZM639.579 78.9961C639.579 70.3427 639.579 61.6217 639.579 52.8331C639.579 43.9769 639.579 35.2221 639.579 26.5687C642.351 26.5687 645.156 26.5687 647.996 26.5687C650.835 26.5687 653.607 26.5687 656.311 26.5687C656.311 35.2221 656.311 43.9769 656.311 52.8331C656.311 61.6217 656.311 70.3427 656.311 78.9961C653.607 78.9961 650.835 78.9961 647.996 78.9961C645.156 78.9961 642.351 78.9961 639.579 78.9961Z" fill="rgb(246,248,251)" fill-rule="nonzero" />
	<path id="Vector" d="M583.017 78.9966C583.017 70.3432 583.017 61.6222 583.017 52.8335C583.017 43.9773 583.017 35.2225 583.017 26.5691C585.788 26.5691 588.594 26.5691 591.433 26.5691C594.273 26.5691 597.045 26.5691 599.749 26.5691C599.749 27.0423 599.749 27.4818 599.749 27.8874C599.749 28.293 599.749 28.7325 599.749 29.2057C601.574 27.9212 603.602 26.9409 605.833 26.2649C608.132 25.5212 610.599 25.1494 613.236 25.1494C617.089 25.1494 620.47 26.0283 623.377 27.786C626.351 29.5437 628.65 32.0789 630.272 35.3915C631.963 38.6366 632.808 42.5576 632.808 47.1548C632.808 52.4279 632.808 57.7349 632.808 63.0757C632.808 68.4164 632.808 73.7234 632.808 78.9966C630.103 78.9966 627.332 78.9966 624.492 78.9966C621.653 78.9966 618.847 78.9966 616.075 78.9966C616.075 74.129 616.075 69.1939 616.075 64.1911C616.075 59.1884 616.075 54.2532 616.075 49.3857C616.075 46.6815 615.433 44.5182 614.149 42.8957C612.932 41.2055 610.971 40.3605 608.267 40.3605C605.563 40.3605 603.467 41.1379 601.98 42.6928C600.492 44.2477 599.749 46.4787 599.749 49.3857C599.749 54.2532 599.749 59.1884 599.749 64.1911C599.749 69.1939 599.749 74.129 599.749 78.9966C597.045 78.9966 594.273 78.9966 591.433 78.9966C588.594 78.9966 585.788 78.9966 583.017 78.9966Z" fill="rgb(246,248,251)" fill-rule="nonzero" />
	<path id="Vector" d="M526.961 78.9966C526.961 70.3432 526.961 61.6222 526.961 52.8335C526.961 43.9773 526.961 35.2225 526.961 26.5691C529.733 26.5691 532.538 26.5691 535.378 26.5691C538.217 26.5691 540.989 26.5691 543.693 26.5691C543.693 27.0423 543.693 27.4818 543.693 27.8874C543.693 28.293 543.693 28.7325 543.693 29.2057C545.518 27.9212 547.547 26.9409 549.778 26.2649C552.076 25.5212 554.544 25.1494 557.18 25.1494C561.034 25.1494 564.414 26.0283 567.321 27.786C570.296 29.5437 572.594 32.0789 574.217 35.3915C575.907 38.6366 576.752 42.5576 576.752 47.1548C576.752 52.4279 576.752 57.7349 576.752 63.0757C576.752 68.4164 576.752 73.7234 576.752 78.9966C574.048 78.9966 571.276 78.9966 568.437 78.9966C565.597 78.9966 562.792 78.9966 560.02 78.9966C560.02 74.129 560.02 69.1939 560.02 64.1911C560.02 59.1884 560.02 54.2532 560.02 49.3857C560.02 46.6815 559.377 44.5182 558.093 42.8957C556.876 41.2055 554.916 40.3605 552.211 40.3605C549.507 40.3605 547.411 41.1379 545.924 42.6928C544.437 44.2477 543.693 46.4787 543.693 49.3857C543.693 54.2532 543.693 59.1884 543.693 64.1911C543.693 69.1939 543.693 74.129 543.693 78.9966C540.989 78.9966 538.217 78.9966 535.378 78.9966C532.538 78.9966 529.733 78.9966 526.961 78.9966Z" fill="rgb(246,248,251)" fill-rule="nonzero" />
	<path id="Vector" d="M518.606 76.5625C513.942 78.523 509.311 79.7399 504.713 80.2132C500.116 80.6864 495.756 80.416 491.632 79.4019C487.576 78.4554 483.959 76.7991 480.781 74.433C477.604 72.0668 475.103 69.0584 473.277 65.4077C471.519 61.7571 470.641 57.5318 470.641 52.7318C470.641 48.7432 471.283 45.0925 472.567 41.7799C473.919 38.3996 475.812 35.4588 478.246 32.9575C480.68 30.3885 483.553 28.4279 486.866 27.0758C490.178 25.6561 493.795 24.9463 497.716 24.9463C501.232 24.9463 504.409 25.5209 507.249 26.6702C510.088 27.8195 512.556 29.442 514.651 31.5378C516.747 33.5659 518.437 35.9997 519.722 38.8391C521.006 41.6785 521.818 44.7883 522.156 48.1685C522.494 51.5488 522.291 55.1318 521.547 58.9177C516.003 58.9177 510.426 58.9177 504.815 58.9177C499.204 58.9177 493.626 58.9177 488.083 58.9177C489.367 61.4866 491.497 63.312 494.471 64.3937C497.514 65.4753 501.097 65.8134 505.221 65.4077C509.412 65.0021 513.874 63.9204 518.606 62.1627C518.606 64.5289 518.606 66.9288 518.606 69.3626C518.606 71.7964 518.606 74.1963 518.606 76.5625ZM497.311 39.9545C495.35 39.9545 493.525 40.4954 491.835 41.5771C490.212 42.6587 488.962 44.315 488.083 46.546C491.125 46.546 494.167 46.546 497.209 46.546C500.319 46.546 503.395 46.546 506.437 46.546C505.626 44.2474 504.409 42.5911 502.787 41.5771C501.232 40.4954 499.406 39.9545 497.311 39.9545Z" fill="rgb(246,248,251)" fill-rule="nonzero" />
	<path id="Vector" d="M457.544 20.5856C455.584 20.5856 453.792 20.1124 452.17 19.1659C450.615 18.2195 449.364 16.9688 448.418 15.4139C447.471 13.859 446.998 12.135 446.998 10.2421C446.998 8.34919 447.471 6.65907 448.418 5.17176C449.364 3.61685 450.615 2.36617 452.17 1.4197C453.792 0.473233 455.584 0 457.544 0C459.437 0 461.161 0.473233 462.716 1.4197C464.339 2.36617 465.623 3.61685 466.57 5.17176C467.516 6.65907 467.989 8.34919 467.989 10.2421C467.989 12.135 467.516 13.859 466.57 15.4139C465.623 16.9688 464.339 18.2195 462.716 19.1659C461.161 20.1124 459.437 20.5856 457.544 20.5856ZM449.128 78.9961C449.128 70.3427 449.128 61.6217 449.128 52.8331C449.128 43.9769 449.128 35.2221 449.128 26.5687C451.899 26.5687 454.705 26.5687 457.544 26.5687C460.384 26.5687 463.156 26.5687 465.86 26.5687C465.86 35.2221 465.86 43.9769 465.86 52.8331C465.86 61.6217 465.86 70.3427 465.86 78.9961C463.156 78.9961 460.384 78.9961 457.544 78.9961C454.705 78.9961 451.899 78.9961 449.128 78.9961Z" fill="rgb(246,248,251)" fill-rule="nonzero" />
	<path id="Vector" d="M393.282 78.9964C393.282 67.6388 393.282 56.146 393.282 44.518C393.282 32.8899 393.282 21.3971 393.282 10.0396C397.474 10.0396 401.665 10.0396 405.857 10.0396C410.116 10.0396 414.307 10.0396 418.431 10.0396C423.096 10.0396 427.186 10.8846 430.702 12.5747C434.217 14.1972 436.955 16.4958 438.916 19.4704C440.876 22.3774 441.856 25.8253 441.856 29.8139C441.856 32.6533 441.315 35.2223 440.234 37.5209C439.152 39.8194 437.53 41.7462 435.366 43.3011C438.206 44.9912 440.369 47.1883 441.856 49.8925C443.344 52.5291 444.087 55.4699 444.087 58.715C444.087 62.7712 443.039 66.3205 440.944 69.3627C438.916 72.4049 436.042 74.7711 432.324 76.4612C428.673 78.1513 424.38 78.9964 419.445 78.9964C415.119 78.9964 410.758 78.9964 406.364 78.9964C401.969 78.9964 397.609 78.9964 393.282 78.9964ZM424.11 31.5379C424.11 29.7801 423.569 28.3604 422.488 27.2788C421.406 26.1295 419.986 25.5548 418.228 25.5548C417.012 25.5548 415.761 25.5548 414.476 25.5548C413.259 25.5548 412.043 25.5548 410.826 25.5548C410.826 27.4478 410.826 29.4083 410.826 31.4364C410.826 33.397 410.826 35.3575 410.826 37.3181C412.043 37.3181 413.259 37.3181 414.476 37.3181C415.761 37.3181 417.012 37.3181 418.228 37.3181C419.986 37.3181 421.406 36.811 422.488 35.797C423.569 34.7153 424.11 33.2956 424.11 31.5379ZM426.341 57.0924C426.341 55.1995 425.699 53.7122 424.414 52.6305C423.197 51.4812 421.507 50.9066 419.344 50.9066C417.924 50.9066 416.504 50.9066 415.085 50.9066C413.665 50.9066 412.245 50.9066 410.826 50.9066C410.826 53.0023 410.826 55.0981 410.826 57.1938C410.826 59.2896 410.826 61.3853 410.826 63.4811C412.245 63.4811 413.665 63.4811 415.085 63.4811C416.504 63.4811 417.924 63.4811 419.344 63.4811C421.507 63.4811 423.197 62.9064 424.414 61.7572C425.699 60.6079 426.341 59.053 426.341 57.0924Z" fill="rgb(246,248,251)" fill-rule="nonzero" />
	<path id="Vector" d="M351.19 78.9966C351.19 78.4557 351.19 77.9487 351.19 77.4755C351.19 76.9346 351.19 76.4276 351.19 75.9544C349.5 77.3741 347.573 78.4557 345.41 79.1994C343.314 80.0106 341.049 80.4163 338.616 80.4163C335.168 80.4163 331.923 79.774 328.881 78.4895C325.838 77.1375 323.134 75.2445 320.768 72.8107C318.469 70.3094 316.644 67.3686 315.292 63.9883C314.007 60.6081 313.365 56.856 313.365 52.7321C313.365 48.5406 314.007 44.7548 315.292 41.3745C316.644 37.9943 318.469 35.1211 320.768 32.7549C323.134 30.3212 325.838 28.462 328.881 27.1776C331.923 25.8255 335.134 25.1494 338.514 25.1494C340.948 25.1494 343.247 25.555 345.41 26.3663C347.573 27.11 349.5 28.1578 351.19 29.5099C351.19 28.9691 351.19 28.462 351.19 27.9888C351.19 27.5156 351.19 27.0423 351.19 26.5691C353.962 26.5691 356.768 26.5691 359.607 26.5691C362.446 26.5691 365.218 26.5691 367.922 26.5691C367.922 35.2225 367.922 43.9773 367.922 52.8335C367.922 61.6222 367.922 70.3432 367.922 78.9966C365.218 78.9966 362.446 78.9966 359.607 78.9966C356.768 78.9966 353.962 78.9966 351.19 78.9966ZM340.847 65.6108C344.092 65.6108 346.694 64.4278 348.655 62.0616C350.616 59.6954 351.596 56.5856 351.596 52.7321C351.596 48.8787 350.616 45.8027 348.655 43.5041C346.694 41.1379 344.092 39.9548 340.847 39.9548C337.534 39.9548 334.897 41.1041 332.937 43.4027C331.044 45.7013 330.097 48.8111 330.097 52.7321C330.097 56.6532 331.044 59.7968 332.937 62.163C334.897 64.4616 337.534 65.6108 340.847 65.6108Z" fill="rgb(246,248,251)" fill-rule="nonzero" />
	<path id="Vector" d="M280.748 78.9963C280.748 70.3429 280.748 61.6219 280.748 52.8333C280.748 43.9771 280.748 35.2223 280.748 26.5688C283.52 26.5688 286.325 26.5688 289.165 26.5688C292.004 26.5688 294.776 26.5688 297.48 26.5688C297.48 27.0421 297.48 27.5153 297.48 27.9885C297.48 28.4618 297.48 28.935 297.48 29.4082C299.576 27.9209 301.942 26.8055 304.579 26.0618C307.215 25.3182 310.089 25.1153 313.198 25.4534C313.198 28.1576 313.198 30.8955 313.198 33.6673C313.198 36.4391 313.198 39.1771 313.198 41.8813C307.858 41.1377 303.903 41.6109 301.334 43.301C298.765 44.9235 297.48 47.5939 297.48 51.3122C297.48 55.8417 297.48 60.4388 297.48 65.1035C297.48 69.7683 297.48 74.3992 297.48 78.9963C294.776 78.9963 292.004 78.9963 289.165 78.9963C286.325 78.9963 283.52 78.9963 280.748 78.9963Z" fill="rgb(246,248,251)" fill-rule="nonzero" />
	<path id="Vector" d="M256.905 78.9966C256.905 78.4557 256.905 77.9487 256.905 77.4755C256.905 76.9346 256.905 76.4276 256.905 75.9544C255.215 77.3741 253.288 78.4557 251.125 79.1994C249.029 80.0106 246.764 80.4163 244.331 80.4163C240.883 80.4163 237.638 79.774 234.595 78.4895C231.553 77.1375 228.849 75.2445 226.483 72.8107C224.184 70.3094 222.359 67.3686 221.007 63.9883C219.722 60.6081 219.08 56.856 219.08 52.7321C219.08 48.5406 219.722 44.7548 221.007 41.3745C222.359 37.9943 224.184 35.1211 226.483 32.7549C228.849 30.3212 231.553 28.462 234.595 27.1776C237.638 25.8255 240.849 25.1494 244.229 25.1494C246.663 25.1494 248.961 25.555 251.125 26.3663C253.288 27.11 255.215 28.1578 256.905 29.5099C256.905 28.9691 256.905 28.462 256.905 27.9888C256.905 27.5156 256.905 27.0423 256.905 26.5691C259.677 26.5691 262.482 26.5691 265.322 26.5691C268.161 26.5691 270.933 26.5691 273.637 26.5691C273.637 35.2225 273.637 43.9773 273.637 52.8335C273.637 61.6222 273.637 70.3432 273.637 78.9966C270.933 78.9966 268.161 78.9966 265.322 78.9966C262.482 78.9966 259.677 78.9966 256.905 78.9966ZM246.561 65.6108C249.807 65.6108 252.409 64.4278 254.37 62.0616C256.33 59.6954 257.311 56.5856 257.311 52.7321C257.311 48.8787 256.33 45.8027 254.37 43.5041C252.409 41.1379 249.807 39.9548 246.561 39.9548C243.249 39.9548 240.612 41.1041 238.652 43.4027C236.759 45.7013 235.812 48.8111 235.812 52.7321C235.812 56.6532 236.759 59.7968 238.652 62.163C240.612 64.4616 243.249 65.6108 246.561 65.6108Z" fill="rgb(246,248,251)" fill-rule="nonzero" />
	<path id="Vector" d="M165.777 78.9964C165.777 66.76 165.777 54.4221 165.777 41.9828C165.777 29.5436 165.777 17.2057 165.777 4.96924C168.549 4.96924 171.355 4.96924 174.194 4.96924C177.034 4.96924 179.805 4.96924 182.51 4.96924C182.51 8.95792 182.51 13.0142 182.51 17.1381C182.51 21.1944 182.51 25.2169 182.51 29.2055C184.335 27.921 186.363 26.9408 188.594 26.2647C190.893 25.5211 193.36 25.1492 195.997 25.1492C199.85 25.1492 203.23 26.0281 206.137 27.7858C209.112 29.5436 211.411 32.0787 213.033 35.3914C214.723 38.6364 215.568 42.5575 215.568 47.1546C215.568 52.4278 215.568 57.7347 215.568 63.0755C215.568 68.4163 215.568 73.7232 215.568 78.9964C212.864 78.9964 210.092 78.9964 207.253 78.9964C204.414 78.9964 201.608 78.9964 198.836 78.9964C198.836 74.1289 198.836 69.1937 198.836 64.191C198.836 59.1882 198.836 54.2531 198.836 49.3855C198.836 46.6814 198.194 44.518 196.909 42.8955C195.693 41.2054 193.732 40.3603 191.028 40.3603C188.324 40.3603 186.228 41.1378 184.741 42.6927C183.253 44.2476 182.51 46.4785 182.51 49.3855C182.51 54.2531 182.51 59.1882 182.51 64.191C182.51 69.1937 182.51 74.1289 182.51 78.9964C179.805 78.9964 177.034 78.9964 174.194 78.9964C171.355 78.9964 168.549 78.9964 165.777 78.9964Z" fill="rgb(246,248,251)" fill-rule="nonzero" />
	<path id="Vector" d="M111.9 78.9964C111.9 66.76 111.9 54.4221 111.9 41.9828C111.9 29.5436 111.9 17.2057 111.9 4.96924C114.672 4.96924 117.478 4.96924 120.317 4.96924C123.157 4.96924 125.928 4.96924 128.633 4.96924C128.633 11.5945 128.633 18.3212 128.633 25.1492C128.633 31.9773 128.633 38.704 128.633 45.3293C131.066 42.2194 133.5 39.1096 135.934 35.9998C138.368 32.8224 140.801 29.6788 143.235 26.5689C146.48 26.5689 149.725 26.5689 152.97 26.5689C156.283 26.5689 159.562 26.5689 162.807 26.5689C159.629 30.5576 156.384 34.5801 153.072 38.6364C149.827 42.6927 146.615 46.7152 143.438 50.7038C146.818 55.3686 150.199 60.1009 153.579 64.9008C157.027 69.6332 160.407 74.3317 163.72 78.9964C160.407 78.9964 157.094 78.9964 153.782 78.9964C150.469 78.9964 147.156 78.9964 143.844 78.9964C141.342 75.4134 138.807 71.7965 136.238 68.1459C133.669 64.4276 131.134 60.7769 128.633 57.1939C128.633 60.7769 128.633 64.4276 128.633 68.1459C128.633 71.7965 128.633 75.4134 128.633 78.9964C125.928 78.9964 123.157 78.9964 120.317 78.9964C117.478 78.9964 114.672 78.9964 111.9 78.9964Z" fill="rgb(246,248,251)" fill-rule="nonzero" />
	<path id="Vector" d="M104.318 26.5688C104.318 35.2223 104.318 43.9771 104.318 52.8333C104.318 61.6219 104.318 70.3429 104.318 78.9963C101.614 78.9963 98.8423 78.9963 96.0029 78.9963C93.1635 78.9963 90.3579 78.9963 87.5861 78.9963C87.5861 78.5231 87.5861 78.0836 87.5861 77.678C87.5861 77.2724 87.5861 76.833 87.5861 76.3597C85.7608 77.6442 83.6988 78.6245 81.4003 79.3005C79.1693 80.0442 76.7355 80.416 74.099 80.416C70.2455 80.416 66.8314 79.5371 63.8568 77.7794C60.9498 76.0217 58.6512 73.4865 56.9611 70.1739C55.3386 66.8613 54.5273 62.9402 54.5273 58.4107C54.5273 53.1375 54.5273 47.8305 54.5273 42.4898C54.5273 37.149 54.5273 31.842 54.5273 26.5688C57.2991 26.5688 60.1047 26.5688 62.9442 26.5688C65.7836 26.5688 68.5554 26.5688 71.2596 26.5688C71.2596 31.4364 71.2596 36.3715 71.2596 41.3743C71.2596 46.377 71.2596 51.3122 71.2596 56.1797C71.2596 58.8839 71.868 61.0811 73.0849 62.7712C74.3694 64.3937 76.3637 65.2049 79.0679 65.2049C81.7721 65.2049 83.8679 64.4275 85.3552 62.8726C86.8425 61.3177 87.5861 59.0867 87.5861 56.1797C87.5861 51.3122 87.5861 46.377 87.5861 41.3743C87.5861 36.3715 87.5861 31.4364 87.5861 26.5688C90.3579 26.5688 93.1635 26.5688 96.0029 26.5688C98.8423 26.5688 101.614 26.5688 104.318 26.5688Z" fill="rgb(246,248,251)" fill-rule="nonzero" />
	<path id="Vector" d="M0 78.9964C0 67.6388 0 56.146 0 44.518C0 32.8899 0 21.3971 0 10.0396C4.1915 10.0396 8.38301 10.0396 12.5745 10.0396C16.8336 10.0396 21.0251 10.0396 25.149 10.0396C29.8138 10.0396 33.9038 10.8846 37.4193 12.5747C40.9348 14.1972 43.6728 16.4958 45.6333 19.4704C47.5938 22.3774 48.5741 25.8253 48.5741 29.8139C48.5741 32.6533 48.0333 35.2223 46.9516 37.5209C45.8699 39.8194 44.2474 41.7462 42.084 43.3011C44.9234 44.9912 47.0868 47.1883 48.5741 49.8925C50.0614 52.5291 50.8051 55.4699 50.8051 58.715C50.8051 62.7712 49.7572 66.3205 47.6614 69.3627C45.6333 72.4049 42.7601 74.7711 39.0418 76.4612C35.3912 78.1513 31.0982 78.9964 26.1631 78.9964C21.8364 78.9964 17.4759 78.9964 13.0815 78.9964C8.68723 78.9964 4.32671 78.9964 0 78.9964ZM30.8278 31.5379C30.8278 29.7801 30.287 28.3604 29.2053 27.2788C28.1236 26.1295 26.7039 25.5548 24.9462 25.5548C23.7293 25.5548 22.4786 25.5548 21.1941 25.5548C19.9772 25.5548 18.7604 25.5548 17.5435 25.5548C17.5435 27.4478 17.5435 29.4083 17.5435 31.4364C17.5435 33.397 17.5435 35.3575 17.5435 37.3181C18.7604 37.3181 19.9772 37.3181 21.1941 37.3181C22.4786 37.3181 23.7293 37.3181 24.9462 37.3181C26.7039 37.3181 28.1236 36.811 29.2053 35.797C30.287 34.7153 30.8278 33.2956 30.8278 31.5379ZM33.0588 57.0924C33.0588 55.1995 32.4165 53.7122 31.132 52.6305C29.9152 51.4812 28.225 50.9066 26.0617 50.9066C24.642 50.9066 23.2223 50.9066 21.8026 50.9066C20.3829 50.9066 18.9632 50.9066 17.5435 50.9066C17.5435 53.0023 17.5435 55.0981 17.5435 57.1938C17.5435 59.2896 17.5435 61.3853 17.5435 63.4811C18.9632 63.4811 20.3829 63.4811 21.8026 63.4811C23.2223 63.4811 24.642 63.4811 26.0617 63.4811C28.225 63.4811 29.9152 62.9064 31.132 61.7572C32.4165 60.6079 33.0588 59.053 33.0588 57.0924Z" fill="rgb(246,248,251)" fill-rule="nonzero" />
</svg>
