<svg viewBox="0 0 1220 132.616" xmlns="http://www.w3.org/2000/svg" xmlns:xlink="http://www.w3.org/1999/xlink" width="1220.000000" height="132.615601" fill="none" customFrame="#000000">
	<path id="Vector" d="M1192.41 130.237C1192.41 110.063 1192.41 89.7226 1192.41 69.2146C1192.41 48.7065 1192.41 28.3657 1192.41 8.19202C1196.98 8.19202 1201.61 8.19202 1206.29 8.19202C1210.97 8.19202 1215.54 8.19202 1220 8.19202C1220 28.3657 1220 48.7065 1220 69.2146C1220 89.7226 1220 110.063 1220 130.237C1215.54 130.237 1210.97 130.237 1206.29 130.237C1201.61 130.237 1196.98 130.237 1192.41 130.237Z" fill="rgb(246,248,251)" fill-rule="nonzero" />
	<path id="Vector" d="M1152.27 130.237C1152.27 129.346 1152.27 128.51 1152.27 127.73C1152.27 126.838 1152.27 126.002 1152.27 125.222C1149.48 127.562 1146.31 129.346 1142.74 130.572C1139.29 131.909 1135.55 132.578 1131.54 132.578C1125.85 132.578 1120.51 131.519 1115.49 129.401C1110.47 127.172 1106.02 124.051 1102.11 120.039C1098.33 115.915 1095.32 111.067 1093.09 105.494C1090.97 99.9211 1089.91 93.7352 1089.91 86.9364C1089.91 80.026 1090.97 73.7845 1093.09 68.2116C1095.32 62.6388 1098.33 57.9019 1102.11 54.0009C1106.02 49.9885 1110.47 46.9234 1115.49 44.8057C1120.51 42.5766 1125.8 41.462 1131.37 41.462C1135.38 41.462 1139.17 42.1308 1142.74 43.4683C1146.31 44.6943 1149.48 46.4219 1152.27 48.651C1152.27 47.7593 1152.27 46.9234 1152.27 46.1432C1152.27 45.363 1152.27 44.5828 1152.27 43.8026C1156.84 43.8026 1161.47 43.8026 1166.15 43.8026C1170.83 43.8026 1175.4 43.8026 1179.86 43.8026C1179.86 58.0691 1179.86 72.5027 1179.86 87.1035C1179.86 101.593 1179.86 115.971 1179.86 130.237C1175.4 130.237 1170.83 130.237 1166.15 130.237C1161.47 130.237 1156.84 130.237 1152.27 130.237ZM1135.22 108.169C1140.57 108.169 1144.86 106.218 1148.09 102.317C1151.32 98.4164 1152.94 93.2894 1152.94 86.9364C1152.94 80.5833 1151.32 75.5121 1148.09 71.7225C1144.86 67.8215 1140.57 65.871 1135.22 65.871C1129.76 65.871 1125.41 67.7658 1122.18 71.5553C1119.06 75.3449 1117.5 80.4719 1117.5 86.9364C1117.5 93.4008 1119.06 98.5836 1122.18 102.485C1125.41 106.274 1129.76 108.169 1135.22 108.169Z" fill="rgb(246,248,251)" fill-rule="nonzero" />
	<path id="Vector" d="M1068.32 33.9387C1065.08 33.9387 1062.13 33.1585 1059.46 31.5981C1056.89 30.0377 1054.83 27.9757 1053.27 25.4122C1051.71 22.8487 1050.93 20.0066 1050.93 16.8858C1050.93 13.765 1051.71 10.9786 1053.27 8.52656C1054.83 5.96305 1056.89 3.90111 1059.46 2.34071C1062.13 0.780319 1065.08 0.00012207 1068.32 0.00012207C1071.44 0.00012207 1074.28 0.780319 1076.84 2.34071C1079.52 3.90111 1081.64 5.96305 1083.2 8.52656C1084.76 10.9786 1085.54 13.765 1085.54 16.8858C1085.54 20.0066 1084.76 22.8487 1083.2 25.4122C1081.64 27.9757 1079.52 30.0377 1076.84 31.5981C1074.28 33.1585 1071.44 33.9387 1068.32 33.9387ZM1054.44 130.237C1054.44 115.971 1054.44 101.593 1054.44 87.1035C1054.44 72.5027 1054.44 58.069 1054.44 43.8026C1059.01 43.8026 1063.64 43.8026 1068.32 43.8026C1073 43.8026 1077.57 43.8026 1082.03 43.8026C1082.03 58.069 1082.03 72.5027 1082.03 87.1035C1082.03 101.593 1082.03 115.971 1082.03 130.237C1077.57 130.237 1073 130.237 1068.32 130.237C1063.64 130.237 1059.01 130.237 1054.44 130.237Z" fill="rgb(246,248,251)" fill-rule="nonzero" />
	<path id="Vector" d="M961.189 130.237C961.189 115.971 961.189 101.593 961.189 87.1035C961.189 72.5027 961.189 58.0691 961.189 43.8026C965.759 43.8026 970.385 43.8026 975.066 43.8026C979.747 43.8026 984.317 43.8026 988.775 43.8026C988.775 44.5828 988.775 45.3073 988.775 45.976C988.775 46.6448 988.775 47.3692 988.775 48.1494C991.784 46.0318 995.128 44.4156 998.806 43.3011C1002.6 42.075 1006.66 41.462 1011.01 41.462C1017.36 41.462 1022.94 42.911 1027.73 45.8089C1032.63 48.7067 1036.42 52.8863 1039.1 58.3477C1041.88 63.6976 1043.28 70.1621 1043.28 77.7412C1043.28 86.4348 1043.28 95.1842 1043.28 103.989C1043.28 112.794 1043.28 121.544 1043.28 130.237C1038.82 130.237 1034.25 130.237 1029.57 130.237C1024.89 130.237 1020.26 130.237 1015.69 130.237C1015.69 122.212 1015.69 114.076 1015.69 105.828C1015.69 97.5805 1015.69 89.4441 1015.69 81.4193C1015.69 76.961 1014.63 73.3944 1012.52 70.7194C1010.51 67.933 1007.28 66.5398 1002.82 66.5398C998.36 66.5398 994.905 67.8215 992.453 70.385C990.001 72.9485 988.775 76.6266 988.775 81.4193C988.775 89.4441 988.775 97.5805 988.775 105.828C988.775 114.076 988.775 122.212 988.775 130.237C984.317 130.237 979.747 130.237 975.066 130.237C970.385 130.237 965.759 130.237 961.189 130.237Z" fill="rgb(246,248,251)" fill-rule="nonzero" />
	<path id="Vector" d="M868.773 130.237C868.773 115.971 868.773 101.593 868.773 87.1035C868.773 72.5027 868.773 58.0691 868.773 43.8026C873.343 43.8026 877.969 43.8026 882.65 43.8026C887.331 43.8026 891.901 43.8026 896.359 43.8026C896.359 44.5828 896.359 45.3073 896.359 45.976C896.359 46.6448 896.359 47.3692 896.359 48.1494C899.368 46.0318 902.712 44.4156 906.39 43.3011C910.18 42.075 914.248 41.462 918.595 41.462C924.948 41.462 930.52 42.911 935.313 45.8089C940.217 48.7067 944.007 52.8863 946.682 58.3477C949.468 63.6976 950.861 70.1621 950.861 77.7412C950.861 86.4348 950.861 95.1842 950.861 103.989C950.861 112.794 950.861 121.544 950.861 130.237C946.403 130.237 941.833 130.237 937.152 130.237C932.471 130.237 927.845 130.237 923.276 130.237C923.276 122.212 923.276 114.076 923.276 105.828C923.276 97.5805 923.276 89.4441 923.276 81.4193C923.276 76.961 922.217 73.3944 920.099 70.7194C918.093 67.933 914.861 66.5398 910.402 66.5398C905.944 66.5398 902.489 67.8215 900.037 70.385C897.585 72.9485 896.359 76.6266 896.359 81.4193C896.359 89.4441 896.359 97.5805 896.359 105.828C896.359 114.076 896.359 122.212 896.359 130.237C891.901 130.237 887.331 130.237 882.65 130.237C877.969 130.237 873.343 130.237 868.773 130.237Z" fill="rgb(246,248,251)" fill-rule="nonzero" />
	<path id="Vector" d="M855.001 126.225C847.311 129.457 839.676 131.463 832.097 132.243C824.518 133.023 817.329 132.578 810.53 130.906C803.843 129.345 797.88 126.615 792.641 122.714C787.403 118.813 783.279 113.853 780.27 107.834C777.372 101.815 775.923 94.8494 775.923 86.936C775.923 80.3601 776.982 74.3414 779.099 68.88C781.328 63.3072 784.449 58.4588 788.462 54.3349C792.474 50.0996 797.211 46.8673 802.672 44.6382C808.134 42.2976 814.097 41.1273 820.561 41.1273C826.357 41.1273 831.595 42.0747 836.277 43.9695C840.958 45.8642 845.026 48.5392 848.481 51.9944C851.936 55.3381 854.723 59.3505 856.84 64.0317C858.958 68.7129 860.296 73.8399 860.853 79.4127C861.41 84.9855 861.076 90.8927 859.85 97.1343C850.71 97.1343 841.515 97.1343 832.264 97.1343C823.013 97.1343 813.818 97.1343 804.679 97.1343C806.796 101.37 810.307 104.379 815.211 106.162C820.227 107.946 826.134 108.503 832.933 107.834C839.843 107.165 847.199 105.382 855.001 102.484C855.001 106.385 855.001 110.342 855.001 114.354C855.001 118.367 855.001 122.324 855.001 126.225ZM819.892 65.8707C816.66 65.8707 813.651 66.7624 810.865 68.5457C808.19 70.329 806.128 73.0597 804.679 76.7377C809.694 76.7377 814.71 76.7377 819.725 76.7377C824.852 76.7377 829.924 76.7377 834.939 76.7377C833.602 72.9482 831.595 70.2175 828.921 68.5457C826.357 66.7624 823.348 65.8707 819.892 65.8707Z" fill="rgb(246,248,251)" fill-rule="nonzero" />
	<path id="Vector" d="M754.33 33.9387C751.097 33.9387 748.144 33.1585 745.469 31.5981C742.905 30.0377 740.843 27.9757 739.283 25.4122C737.723 22.8487 736.942 20.0066 736.942 16.8858C736.942 13.765 737.723 10.9786 739.283 8.52656C740.843 5.96305 742.905 3.90111 745.469 2.34071C748.144 0.780319 751.097 0.00012207 754.33 0.00012207C757.45 0.00012207 760.293 0.780319 762.856 2.34071C765.531 3.90111 767.649 5.96305 769.209 8.52656C770.77 10.9786 771.55 13.765 771.55 16.8858C771.55 20.0066 770.77 22.8487 769.209 25.4122C767.649 27.9757 765.531 30.0377 762.856 31.5981C760.293 33.1585 757.45 33.9387 754.33 33.9387ZM740.453 130.237C740.453 115.971 740.453 101.593 740.453 87.1035C740.453 72.5027 740.453 58.069 740.453 43.8026C745.023 43.8026 749.648 43.8026 754.33 43.8026C759.011 43.8026 763.581 43.8026 768.039 43.8026C768.039 58.069 768.039 72.5027 768.039 87.1035C768.039 101.593 768.039 115.971 768.039 130.237C763.581 130.237 759.011 130.237 754.33 130.237C749.648 130.237 745.023 130.237 740.453 130.237Z" fill="rgb(246,248,251)" fill-rule="nonzero" />
	<path id="Vector" d="M648.384 130.237C648.384 111.512 648.384 92.5646 648.384 73.3941C648.384 54.2235 648.384 35.2759 648.384 16.5511C655.294 16.5511 662.204 16.5511 669.115 16.5511C676.136 16.5511 683.047 16.5511 689.846 16.5511C697.536 16.5511 704.279 17.9444 710.075 20.7308C715.871 23.4057 720.385 27.1953 723.617 32.0993C726.849 36.892 728.465 42.5763 728.465 49.1522C728.465 53.8334 727.574 58.0688 725.79 61.8583C724.007 65.6478 721.332 68.8243 717.766 71.3878C722.447 74.1742 726.013 77.7966 728.465 82.2549C730.917 86.6017 732.143 91.45 732.143 96.8C732.143 103.487 730.416 109.339 726.961 114.354C723.617 119.37 718.88 123.271 712.75 126.057C706.731 128.844 699.654 130.237 691.518 130.237C684.384 130.237 677.195 130.237 669.951 130.237C662.706 130.237 655.517 130.237 648.384 130.237ZM699.208 51.9944C699.208 49.0965 698.316 46.7559 696.533 44.9726C694.75 43.0778 692.409 42.1305 689.511 42.1305C687.505 42.1305 685.443 42.1305 683.326 42.1305C681.319 42.1305 679.313 42.1305 677.307 42.1305C677.307 45.2512 677.307 48.4835 677.307 51.8272C677.307 55.0594 677.307 58.2917 677.307 61.5239C679.313 61.5239 681.319 61.5239 683.326 61.5239C685.443 61.5239 687.505 61.5239 689.511 61.5239C692.409 61.5239 694.75 60.688 696.533 59.0161C698.316 57.2328 699.208 54.8922 699.208 51.9944ZM702.886 94.125C702.886 91.0042 701.827 88.5522 699.71 86.7689C697.703 84.8741 694.917 83.9267 691.35 83.9267C689.01 83.9267 686.669 83.9267 684.329 83.9267C681.988 83.9267 679.647 83.9267 677.307 83.9267C677.307 87.3819 677.307 90.837 677.307 94.2922C677.307 97.7473 677.307 101.202 677.307 104.658C679.647 104.658 681.988 104.658 684.329 104.658C686.669 104.658 689.01 104.658 691.35 104.658C694.917 104.658 697.703 103.71 699.71 101.816C701.827 99.9207 702.886 97.3572 702.886 94.125Z" fill="rgb(246,248,251)" fill-rule="nonzero" />
	<path id="Vector" d="M462.854 130.237C462.854 115.971 462.854 101.593 462.854 87.1035C462.854 72.5026 462.854 58.069 462.854 43.8025C467.424 43.8025 472.05 43.8025 476.731 43.8025C481.412 43.8025 485.982 43.8025 490.44 43.8025C490.44 44.5827 490.44 45.3629 490.44 46.1431C490.44 46.9233 490.44 47.7035 490.44 48.4837C493.895 46.0317 497.796 44.1926 502.143 42.9666C506.49 41.7406 511.227 41.4062 516.354 41.9635C516.354 46.4218 516.354 50.9358 516.354 55.5055C516.354 60.0752 516.354 64.5892 516.354 69.0475C507.549 67.8214 501.028 68.6016 496.793 71.3881C492.558 74.063 490.44 78.4656 490.44 84.5957C490.44 92.0633 490.44 99.6423 490.44 107.333C490.44 115.023 490.44 122.658 490.44 130.237C485.982 130.237 481.412 130.237 476.731 130.237C472.05 130.237 467.424 130.237 462.854 130.237Z" fill="rgb(246,248,251)" fill-rule="nonzero" />
	<path id="Vector" d="M273.309 130.237C273.309 110.063 273.309 89.7226 273.309 69.2146C273.309 48.7065 273.309 28.3657 273.309 8.19202C277.878 8.19202 282.504 8.19202 287.185 8.19202C291.866 8.19202 296.436 8.19202 300.894 8.19202C300.894 14.768 300.894 21.4554 300.894 28.2542C300.894 34.9416 300.894 41.5733 300.894 48.1492C303.903 46.0316 307.247 44.4154 310.925 43.3009C314.715 42.0748 318.783 41.4618 323.13 41.4618C329.483 41.4618 335.056 42.9108 339.848 45.8087C344.752 48.7065 348.542 52.8861 351.217 58.3475C354.003 63.6974 355.396 70.1619 355.396 77.741C355.396 86.4346 355.396 95.184 355.396 103.989C355.396 112.794 355.396 121.543 355.396 130.237C350.938 130.237 346.368 130.237 341.687 130.237C337.006 130.237 332.381 130.237 327.811 130.237C327.811 122.212 327.811 114.076 327.811 105.828C327.811 97.5803 327.811 89.4439 327.811 81.4191C327.811 76.9608 326.752 73.3942 324.634 70.7192C322.628 67.9328 319.396 66.5396 314.938 66.5396C310.479 66.5396 307.024 67.8213 304.572 70.3848C302.12 72.9483 300.894 76.6264 300.894 81.4191C300.894 89.4439 300.894 97.5803 300.894 105.828C300.894 114.076 300.894 122.212 300.894 130.237C296.436 130.237 291.866 130.237 287.185 130.237C282.504 130.237 277.878 130.237 273.309 130.237Z" fill="rgb(246,248,251)" fill-rule="nonzero" />
	<path id="Vector" d="M184.484 130.237C184.484 110.063 184.484 89.7226 184.484 69.2146C184.484 48.7065 184.484 28.3657 184.484 8.19202C189.054 8.19202 193.68 8.19202 198.361 8.19202C203.042 8.19202 207.612 8.19202 212.07 8.19202C212.07 19.1148 212.07 30.2047 212.07 41.4618C212.07 52.719 212.07 63.8089 212.07 74.7317C216.082 69.6046 220.095 64.4776 224.107 59.3506C228.12 54.1122 232.132 48.9294 236.145 43.8024C241.494 43.8024 246.844 43.8024 252.194 43.8024C257.656 43.8024 263.061 43.8024 268.411 43.8024C263.173 50.3784 257.823 57.01 252.361 63.6974C247.012 70.3848 241.717 77.0165 236.479 83.5925C242.052 91.283 247.625 99.0849 253.197 106.998C258.882 114.8 264.455 122.547 269.916 130.237C264.455 130.237 258.993 130.237 253.532 130.237C248.07 130.237 242.609 130.237 237.148 130.237C233.024 124.33 228.844 118.367 224.609 112.348C220.373 106.218 216.194 100.2 212.07 94.2923C212.07 100.2 212.07 106.218 212.07 112.348C212.07 118.367 212.07 124.33 212.07 130.237C207.612 130.237 203.042 130.237 198.361 130.237C193.68 130.237 189.054 130.237 184.484 130.237Z" fill="rgb(246,248,251)" fill-rule="nonzero" />
	<path id="Vector" d="M0 130.237C0 111.512 0 92.5646 0 73.3941C0 54.2235 0 35.2759 0 16.5511C6.91031 16.5511 13.8206 16.5511 20.7309 16.5511C27.7527 16.5511 34.663 16.5511 41.4619 16.5511C49.1524 16.5511 55.8955 17.9444 61.6913 20.7308C67.487 23.4057 72.001 27.1953 75.2333 32.0993C78.4655 36.892 80.0816 42.5763 80.0816 49.1522C80.0816 53.8334 79.19 58.0688 77.4067 61.8583C75.6234 65.6478 72.9484 68.8243 69.3818 71.3878C74.063 74.1742 77.6296 77.7966 80.0816 82.2549C82.5337 86.6017 83.7597 91.45 83.7597 96.8C83.7597 103.487 82.0321 109.339 78.577 114.354C75.2333 119.37 70.4964 123.271 64.3662 126.057C58.3476 128.844 51.2701 130.237 43.1337 130.237C36.0005 130.237 28.8116 130.237 21.5669 130.237C14.3222 130.237 7.13323 130.237 0 130.237ZM50.8243 51.9944C50.8243 49.0965 49.9326 46.7559 48.1493 44.9726C46.366 43.0778 44.0254 42.1305 41.1275 42.1305C39.1213 42.1305 37.0594 42.1305 34.9417 42.1305C32.9355 42.1305 30.9292 42.1305 28.923 42.1305C28.923 45.2512 28.923 48.4835 28.923 51.8272C28.923 55.0594 28.923 58.2917 28.923 61.5239C30.9292 61.5239 32.9355 61.5239 34.9417 61.5239C37.0594 61.5239 39.1213 61.5239 41.1275 61.5239C44.0254 61.5239 46.366 60.688 48.1493 59.0161C49.9326 57.2328 50.8243 54.8922 50.8243 51.9944ZM54.5023 94.125C54.5023 91.0042 53.4435 88.5522 51.3258 86.7689C49.3196 84.8741 46.5332 83.9267 42.9666 83.9267C40.626 83.9267 38.2854 83.9267 35.9448 83.9267C33.6042 83.9267 31.2636 83.9267 28.923 83.9267C28.923 87.3819 28.923 90.837 28.923 94.2922C28.923 97.7473 28.923 101.202 28.923 104.658C31.2636 104.658 33.6042 104.658 35.9448 104.658C38.2854 104.658 40.626 104.658 42.9666 104.658C46.5332 104.658 49.3196 103.71 51.3258 101.816C53.4435 99.9207 54.5023 97.3572 54.5023 94.125Z" fill="rgb(246,248,251)" fill-rule="nonzero" />
	<path id="Vector" d="M171.984 43.8026C171.984 58.0691 171.984 72.5027 171.984 87.1035C171.984 101.593 171.984 115.971 171.984 130.237C167.526 130.237 162.956 130.237 158.275 130.237C153.594 130.237 148.969 130.237 144.399 130.237C144.399 129.457 144.399 128.733 144.399 128.064C144.399 127.395 144.399 126.671 144.399 125.89C141.389 128.008 137.99 129.624 134.201 130.739C130.522 131.965 126.51 132.578 122.163 132.578C115.81 132.578 110.182 131.129 105.278 128.231C100.485 125.333 96.6953 121.154 93.9089 115.692C91.234 110.231 89.8965 103.766 89.8965 96.2987C89.8965 87.6051 89.8965 78.8557 89.8965 70.0507C89.8965 61.2456 89.8965 52.4962 89.8965 43.8026C94.4662 43.8026 99.0917 43.8026 103.773 43.8026C108.454 43.8026 113.024 43.8026 117.482 43.8026C117.482 51.8275 117.482 59.9638 117.482 68.2116C117.482 76.4594 117.482 84.5958 117.482 92.6206C117.482 97.0789 118.485 100.701 120.491 103.488C122.609 106.163 125.897 107.5 130.355 107.5C134.814 107.5 138.269 106.218 140.721 103.655C143.173 101.091 144.399 97.4133 144.399 92.6206C144.399 84.5958 144.399 76.4594 144.399 68.2116C144.399 59.9638 144.399 51.8275 144.399 43.8026C148.969 43.8026 153.594 43.8026 158.275 43.8026C162.956 43.8026 167.526 43.8026 171.984 43.8026Z" fill="rgb(246,248,251)" fill-rule="nonzero" />
	<path id="Vector" d="M423.547 130.237C423.547 129.346 423.547 128.51 423.547 127.73C423.547 126.838 423.547 126.002 423.547 125.222C420.76 127.562 417.584 129.346 414.017 130.572C410.562 131.909 406.828 132.578 402.816 132.578C397.131 132.578 391.781 131.519 386.766 129.401C381.75 127.172 377.292 124.051 373.391 120.039C369.602 115.915 366.592 111.067 364.363 105.494C362.245 99.9211 361.187 93.7352 361.187 86.9364C361.187 80.026 362.245 73.7845 364.363 68.2116C366.592 62.6388 369.602 57.9019 373.391 54.0009C377.292 49.9885 381.75 46.9234 386.766 44.8057C391.781 42.5766 397.076 41.462 402.648 41.462C406.661 41.462 410.45 42.1308 414.017 43.4683C417.584 44.6943 420.76 46.4219 423.547 48.651C423.547 47.7593 423.547 46.9234 423.547 46.1432C423.547 45.363 423.547 44.5828 423.547 43.8026C428.116 43.8026 432.742 43.8026 437.423 43.8026C442.104 43.8026 446.674 43.8026 451.132 43.8026C451.132 58.0691 451.132 72.5027 451.132 87.1035C451.132 101.593 451.132 115.971 451.132 130.237C446.674 130.237 442.104 130.237 437.423 130.237C432.742 130.237 428.116 130.237 423.547 130.237ZM406.494 108.169C411.844 108.169 416.135 106.218 419.367 102.317C422.599 98.4164 424.215 93.2894 424.215 86.9364C424.215 80.5833 422.599 75.5121 419.367 71.7225C416.135 67.8215 411.844 65.871 406.494 65.871C401.032 65.871 396.685 67.7658 393.453 71.5553C390.332 75.3449 388.772 80.4719 388.772 86.9364C388.772 93.4008 390.332 98.5836 393.453 102.485C396.685 106.274 401.032 108.169 406.494 108.169Z" fill="rgb(246,248,251)" fill-rule="nonzero" />
	<path id="Vector" d="M578.989 130.237C578.989 129.346 578.989 128.51 578.989 127.73C578.989 126.838 578.989 126.002 578.989 125.222C576.203 127.562 573.026 129.346 569.459 130.572C566.004 131.909 562.27 132.578 558.258 132.578C552.574 132.578 547.224 131.519 542.208 129.401C537.193 127.172 532.734 124.051 528.833 120.039C525.044 115.915 522.035 111.067 519.805 105.494C517.688 99.9211 516.629 93.7352 516.629 86.9364C516.629 80.026 517.688 73.7845 519.805 68.2116C522.035 62.6388 525.044 57.9019 528.833 54.0009C532.734 49.9885 537.193 46.9234 542.208 44.8057C547.224 42.5766 552.518 41.462 558.091 41.462C562.103 41.462 565.893 42.1308 569.459 43.4683C573.026 44.6943 576.203 46.4219 578.989 48.651C578.989 47.7593 578.989 46.9234 578.989 46.1432C578.989 45.363 578.989 44.5828 578.989 43.8026C583.559 43.8026 588.184 43.8026 592.865 43.8026C597.546 43.8026 602.116 43.8026 606.574 43.8026C606.574 58.0691 606.574 72.5027 606.574 87.1035C606.574 101.593 606.574 115.971 606.574 130.237C602.116 130.237 597.546 130.237 592.865 130.237C588.184 130.237 583.559 130.237 578.989 130.237ZM561.936 108.169C567.286 108.169 571.577 106.218 574.809 102.317C578.042 98.4164 579.658 93.2894 579.658 86.9364C579.658 80.5833 578.042 75.5121 574.809 71.7225C571.577 67.8215 567.286 65.871 561.936 65.871C556.475 65.871 552.128 67.7658 548.896 71.5553C545.775 75.3449 544.214 80.4719 544.214 86.9364C544.214 93.4008 545.775 98.5836 548.896 102.485C552.128 106.274 556.475 108.169 561.936 108.169Z" fill="rgb(246,248,251)" fill-rule="nonzero" />
</svg>
