<svg viewBox="0 0 314.999 34.2408" xmlns="http://www.w3.org/2000/svg" xmlns:xlink="http://www.w3.org/1999/xlink" width="314.999023" height="34.240845" fill="none" customFrame="#000000">
	<path id="Vector" d="M307.877 33.6268C307.877 28.418 307.877 23.166 307.877 17.8709C307.877 12.5758 307.877 7.32388 307.877 2.11511C309.057 2.11511 310.251 2.11511 311.46 2.11511C312.668 2.11511 313.848 2.11511 314.999 2.11511C314.999 7.32388 314.999 12.5758 314.999 17.8709C314.999 23.166 314.999 28.418 314.999 33.6268C313.848 33.6268 312.668 33.6268 311.46 33.6268C310.251 33.6268 309.057 33.6268 307.877 33.6268Z" fill="rgb(246,248,251)" fill-rule="nonzero" />
	<path id="Vector" d="M297.512 33.6268C297.512 33.3966 297.512 33.1807 297.512 32.9793C297.512 32.7491 297.512 32.5332 297.512 32.3318C296.793 32.9361 295.973 33.3966 295.052 33.7131C294.16 34.0585 293.196 34.2311 292.16 34.2311C290.692 34.2311 289.311 33.9577 288.016 33.411C286.721 32.8354 285.57 32.0296 284.562 30.9936C283.584 29.9289 282.807 28.677 282.231 27.2381C281.685 25.7993 281.411 24.2021 281.411 22.4466C281.411 20.6624 281.685 19.0509 282.231 17.612C282.807 16.1731 283.584 14.95 284.562 13.9428C285.57 12.9068 286.721 12.1154 288.016 11.5687C289.311 10.9931 290.678 10.7053 292.116 10.7053C293.152 10.7053 294.131 10.878 295.052 11.2233C295.973 11.5399 296.793 11.9859 297.512 12.5615C297.512 12.3313 297.512 12.1154 297.512 11.914C297.512 11.7125 297.512 11.5111 297.512 11.3097C298.692 11.3097 299.886 11.3097 301.095 11.3097C302.304 11.3097 303.484 11.3097 304.635 11.3097C304.635 14.9932 304.635 18.7199 304.635 22.4898C304.635 26.2309 304.635 29.9432 304.635 33.6268C303.484 33.6268 302.304 33.6268 301.095 33.6268C299.886 33.6268 298.692 33.6268 297.512 33.6268ZM293.109 27.9288C294.491 27.9288 295.599 27.4252 296.433 26.418C297.268 25.4108 297.685 24.087 297.685 22.4466C297.685 20.8063 297.268 19.4969 296.433 18.5185C295.599 17.5113 294.491 17.0076 293.109 17.0076C291.699 17.0076 290.577 17.4969 289.742 18.4753C288.937 19.4538 288.534 20.7775 288.534 22.4466C288.534 24.1158 288.937 25.4539 289.742 26.4611C290.577 27.4396 291.699 27.9288 293.109 27.9288Z" fill="rgb(246,248,251)" fill-rule="nonzero" />
	<path id="Vector" d="M275.836 8.76283C275.001 8.76283 274.239 8.56138 273.548 8.15849C272.886 7.7556 272.354 7.22322 271.951 6.56133C271.548 5.89944 271.347 5.16561 271.347 4.35983C271.347 3.55405 271.548 2.83461 271.951 2.2015C272.354 1.53961 272.886 1.00722 273.548 0.604333C274.239 0.201444 275.001 0 275.836 0C276.642 0 277.376 0.201444 278.038 0.604333C278.728 1.00722 279.275 1.53961 279.678 2.2015C280.081 2.83461 280.282 3.55405 280.282 4.35983C280.282 5.16561 280.081 5.89944 279.678 6.56133C279.275 7.22322 278.728 7.7556 278.038 8.15849C277.376 8.56138 276.642 8.76283 275.836 8.76283ZM272.253 33.6268C272.253 29.9432 272.253 26.2309 272.253 22.4898C272.253 18.7199 272.253 14.9932 272.253 11.3097C273.433 11.3097 274.627 11.3097 275.836 11.3097C277.045 11.3097 278.225 11.3097 279.376 11.3097C279.376 14.9932 279.376 18.7199 279.376 22.4898C279.376 26.2309 279.376 29.9432 279.376 33.6268C278.225 33.6268 277.045 33.6268 275.836 33.6268C274.627 33.6268 273.433 33.6268 272.253 33.6268Z" fill="rgb(246,248,251)" fill-rule="nonzero" />
	<path id="Vector" d="M248.176 33.6268C248.176 29.9432 248.176 26.2309 248.176 22.4898C248.176 18.7199 248.176 14.9932 248.176 11.3097C249.356 11.3097 250.55 11.3097 251.759 11.3097C252.967 11.3097 254.147 11.3097 255.298 11.3097C255.298 11.5111 255.298 11.6982 255.298 11.8708C255.298 12.0435 255.298 12.2305 255.298 12.432C256.075 11.8852 256.939 11.4679 257.888 11.1802C258.867 10.8636 259.917 10.7053 261.039 10.7053C262.68 10.7053 264.119 11.0794 265.356 11.8277C266.622 12.5759 267.601 13.655 268.291 15.0652C269.011 16.4465 269.371 18.1156 269.371 20.0725C269.371 22.3171 269.371 24.5762 269.371 26.8496C269.371 29.1231 269.371 31.3821 269.371 33.6268C268.219 33.6268 267.04 33.6268 265.831 33.6268C264.622 33.6268 263.428 33.6268 262.248 33.6268C262.248 31.5548 262.248 29.454 262.248 27.3245C262.248 25.1949 262.248 23.0941 262.248 21.0221C262.248 19.871 261.975 18.9501 261.428 18.2595C260.91 17.54 260.075 17.1803 258.924 17.1803C257.773 17.1803 256.881 17.5113 256.248 18.1731C255.615 18.835 255.298 19.7847 255.298 21.0221C255.298 23.0941 255.298 25.1949 255.298 27.3245C255.298 29.454 255.298 31.5548 255.298 33.6268C254.147 33.6268 252.967 33.6268 251.759 33.6268C250.55 33.6268 249.356 33.6268 248.176 33.6268Z" fill="rgb(246,248,251)" fill-rule="nonzero" />
	<path id="Vector" d="M224.314 33.6268C224.314 29.9432 224.314 26.2309 224.314 22.4898C224.314 18.7199 224.314 14.9932 224.314 11.3097C225.494 11.3097 226.689 11.3097 227.897 11.3097C229.106 11.3097 230.286 11.3097 231.437 11.3097C231.437 11.5111 231.437 11.6982 231.437 11.8708C231.437 12.0435 231.437 12.2305 231.437 12.432C232.214 11.8852 233.077 11.4679 234.027 11.1802C235.005 10.8636 236.056 10.7053 237.178 10.7053C238.818 10.7053 240.257 11.0794 241.495 11.8277C242.761 12.5759 243.739 13.655 244.43 15.0652C245.15 16.4465 245.509 18.1156 245.509 20.0725C245.509 22.3171 245.509 24.5762 245.509 26.8496C245.509 29.1231 245.509 31.3821 245.509 33.6268C244.358 33.6268 243.178 33.6268 241.97 33.6268C240.761 33.6268 239.567 33.6268 238.387 33.6268C238.387 31.5548 238.387 29.454 238.387 27.3245C238.387 25.1949 238.387 23.0941 238.387 21.0221C238.387 19.871 238.113 18.9501 237.567 18.2595C237.049 17.54 236.214 17.1803 235.063 17.1803C233.912 17.1803 233.02 17.5113 232.387 18.1731C231.753 18.835 231.437 19.7847 231.437 21.0221C231.437 23.0941 231.437 25.1949 231.437 27.3245C231.437 29.454 231.437 31.5548 231.437 33.6268C230.286 33.6268 229.106 33.6268 227.897 33.6268C226.689 33.6268 225.494 33.6268 224.314 33.6268Z" fill="rgb(246,248,251)" fill-rule="nonzero" />
	<path id="Vector" d="M220.759 32.5907C218.773 33.4253 216.802 33.9433 214.845 34.1447C212.888 34.3462 211.032 34.231 209.276 33.7994C207.55 33.3965 206.01 32.6914 204.657 31.6842C203.305 30.677 202.24 29.3964 201.463 27.8424C200.715 26.2884 200.341 24.4898 200.341 22.4466C200.341 20.7487 200.614 19.1947 201.161 17.7846C201.737 16.3457 202.542 15.0938 203.578 14.0291C204.614 12.9355 205.837 12.101 207.247 11.5254C208.658 10.9211 210.197 10.6189 211.866 10.6189C213.363 10.6189 214.715 10.8635 215.924 11.3527C217.133 11.842 218.183 12.5326 219.075 13.4247C219.967 14.2881 220.687 15.3241 221.233 16.5327C221.78 17.7414 222.126 19.0652 222.269 20.5041C222.413 21.9429 222.327 23.4682 222.01 25.0797C219.651 25.0797 217.277 25.0797 214.888 25.0797C212.499 25.0797 210.125 25.0797 207.765 25.0797C208.312 26.1733 209.219 26.9503 210.485 27.4107C211.78 27.8712 213.305 28.015 215.061 27.8424C216.845 27.6697 218.744 27.2093 220.759 26.4611C220.759 27.4683 220.759 28.4899 220.759 29.5259C220.759 30.5619 220.759 31.5835 220.759 32.5907ZM211.694 17.0076C210.859 17.0076 210.082 17.2378 209.363 17.6982C208.672 18.1587 208.14 18.8637 207.765 19.8134C209.06 19.8134 210.355 19.8134 211.65 19.8134C212.974 19.8134 214.284 19.8134 215.579 19.8134C215.233 18.8349 214.715 18.1299 214.025 17.6982C213.363 17.2378 212.586 17.0076 211.694 17.0076Z" fill="rgb(246,248,251)" fill-rule="nonzero" />
	<path id="Vector" d="M194.766 8.76283C193.931 8.76283 193.169 8.56138 192.478 8.15849C191.816 7.7556 191.284 7.22322 190.881 6.56133C190.478 5.89944 190.276 5.16561 190.276 4.35983C190.276 3.55405 190.478 2.83461 190.881 2.2015C191.284 1.53961 191.816 1.00722 192.478 0.604333C193.169 0.201444 193.931 0 194.766 0C195.571 0 196.305 0.201444 196.967 0.604333C197.658 1.00722 198.205 1.53961 198.608 2.2015C199.01 2.83461 199.212 3.55405 199.212 4.35983C199.212 5.16561 199.01 5.89944 198.608 6.56133C198.205 7.22322 197.658 7.7556 196.967 8.15849C196.305 8.56138 195.571 8.76283 194.766 8.76283ZM191.183 33.6268C191.183 29.9432 191.183 26.2309 191.183 22.4898C191.183 18.7199 191.183 14.9932 191.183 11.3097C192.363 11.3097 193.557 11.3097 194.766 11.3097C195.974 11.3097 197.154 11.3097 198.305 11.3097C198.305 14.9932 198.305 18.7199 198.305 22.4898C198.305 26.2309 198.305 29.9432 198.305 33.6268C197.154 33.6268 195.974 33.6268 194.766 33.6268C193.557 33.6268 192.363 33.6268 191.183 33.6268Z" fill="rgb(246,248,251)" fill-rule="nonzero" />
	<path id="Vector" d="M167.41 33.6267C167.41 28.7921 167.41 23.8999 167.41 18.9501C167.41 14.0003 167.41 9.1081 167.41 4.27344C169.194 4.27344 170.979 4.27344 172.763 4.27344C174.576 4.27344 176.36 4.27344 178.115 4.27344C180.101 4.27344 181.842 4.63316 183.339 5.3526C184.835 6.04327 186.001 7.02171 186.835 8.28793C187.67 9.52538 188.087 10.993 188.087 12.6909C188.087 13.8996 187.857 14.9931 187.396 15.9716C186.936 16.95 186.245 17.7702 185.324 18.4321C186.533 19.1515 187.454 20.0868 188.087 21.2379C188.72 22.3603 189.037 23.6121 189.037 24.9934C189.037 26.7201 188.591 28.2309 187.698 29.5259C186.835 30.8209 185.612 31.8281 184.029 32.5476C182.475 33.267 180.648 33.6267 178.547 33.6267C176.705 33.6267 174.849 33.6267 172.979 33.6267C171.108 33.6267 169.252 33.6267 167.41 33.6267ZM180.533 13.4248C180.533 12.6765 180.303 12.0722 179.842 11.6118C179.382 11.1225 178.777 10.8779 178.029 10.8779C177.511 10.8779 176.979 10.8779 176.432 10.8779C175.914 10.8779 175.396 10.8779 174.878 10.8779C174.878 11.6837 174.878 12.5183 174.878 13.3816C174.878 14.2162 174.878 15.0507 174.878 15.8853C175.396 15.8853 175.914 15.8853 176.432 15.8853C176.979 15.8853 177.511 15.8853 178.029 15.8853C178.777 15.8853 179.382 15.6694 179.842 15.2378C180.303 14.7773 180.533 14.173 180.533 13.4248ZM181.482 24.3028C181.482 23.497 181.209 22.8639 180.662 22.4034C180.144 21.9142 179.425 21.6696 178.504 21.6696C177.9 21.6696 177.295 21.6696 176.691 21.6696C176.087 21.6696 175.482 21.6696 174.878 21.6696C174.878 22.5617 174.878 23.4538 174.878 24.3459C174.878 25.238 174.878 26.1301 174.878 27.0222C175.482 27.0222 176.087 27.0222 176.691 27.0222C177.295 27.0222 177.9 27.0222 178.504 27.0222C179.425 27.0222 180.144 26.7776 180.662 26.2884C181.209 25.7992 181.482 25.1373 181.482 24.3028Z" fill="rgb(246,248,251)" fill-rule="nonzero" />
	<path id="Vector" d="M149.493 33.6268C149.493 33.3966 149.493 33.1807 149.493 32.9793C149.493 32.7491 149.493 32.5332 149.493 32.3318C148.773 32.9361 147.953 33.3966 147.032 33.7131C146.14 34.0585 145.176 34.2311 144.14 34.2311C142.672 34.2311 141.291 33.9577 139.996 33.411C138.701 32.8354 137.55 32.0296 136.543 30.9936C135.564 29.9289 134.787 28.677 134.212 27.2381C133.665 25.7993 133.392 24.2021 133.392 22.4466C133.392 20.6624 133.665 19.0509 134.212 17.612C134.787 16.1731 135.564 14.95 136.543 13.9428C137.55 12.9068 138.701 12.1154 139.996 11.5687C141.291 10.9931 142.658 10.7053 144.097 10.7053C145.133 10.7053 146.111 10.878 147.032 11.2233C147.953 11.5399 148.773 11.9859 149.493 12.5615C149.493 12.3313 149.493 12.1154 149.493 11.914C149.493 11.7125 149.493 11.5111 149.493 11.3097C150.673 11.3097 151.867 11.3097 153.076 11.3097C154.284 11.3097 155.464 11.3097 156.615 11.3097C156.615 14.9932 156.615 18.7199 156.615 22.4898C156.615 26.2309 156.615 29.9432 156.615 33.6268C155.464 33.6268 154.284 33.6268 153.076 33.6268C151.867 33.6268 150.673 33.6268 149.493 33.6268ZM145.09 27.9288C146.471 27.9288 147.579 27.4252 148.414 26.418C149.248 25.4108 149.665 24.087 149.665 22.4466C149.665 20.8063 149.248 19.4969 148.414 18.5185C147.579 17.5113 146.471 17.0076 145.09 17.0076C143.68 17.0076 142.557 17.4969 141.723 18.4753C140.917 19.4538 140.514 20.7775 140.514 22.4466C140.514 24.1158 140.917 25.4539 141.723 26.4611C142.557 27.4396 143.68 27.9288 145.09 27.9288Z" fill="rgb(246,248,251)" fill-rule="nonzero" />
	<path id="Vector" d="M119.508 33.6268C119.508 29.9432 119.508 26.2309 119.508 22.4898C119.508 18.7199 119.508 14.9932 119.508 11.3096C120.688 11.3096 121.882 11.3096 123.091 11.3096C124.299 11.3096 125.479 11.3096 126.63 11.3096C126.63 11.5111 126.63 11.7125 126.63 11.9139C126.63 12.1154 126.63 12.3168 126.63 12.5183C127.522 11.8852 128.53 11.4103 129.652 11.0938C130.774 10.7772 131.997 10.6909 133.321 10.8348C133.321 11.9859 133.321 13.1514 133.321 14.3313C133.321 15.5112 133.321 16.6767 133.321 17.8278C131.048 17.5112 129.364 17.7127 128.271 18.4321C127.177 19.1228 126.63 20.2595 126.63 21.8423C126.63 23.7704 126.63 25.7273 126.63 27.7129C126.63 29.6986 126.63 31.6699 126.63 33.6268C125.479 33.6268 124.299 33.6268 123.091 33.6268C121.882 33.6268 120.688 33.6268 119.508 33.6268Z" fill="rgb(246,248,251)" fill-rule="nonzero" />
	<path id="Vector" d="M109.358 33.6268C109.358 33.3966 109.358 33.1807 109.358 32.9793C109.358 32.7491 109.358 32.5332 109.358 32.3318C108.639 32.9361 107.818 33.3966 106.897 33.7131C106.005 34.0585 105.041 34.2311 104.005 34.2311C102.538 34.2311 101.156 33.9577 99.8613 33.411C98.5663 32.8354 97.4152 32.0296 96.408 30.9936C95.4296 29.9289 94.6526 28.677 94.077 27.2381C93.5302 25.7993 93.2568 24.2021 93.2568 22.4466C93.2568 20.6624 93.5302 19.0509 94.077 17.612C94.6526 16.1731 95.4296 14.95 96.408 13.9428C97.4152 12.9068 98.5663 12.1154 99.8613 11.5687C101.156 10.9931 102.523 10.7053 103.962 10.7053C104.998 10.7053 105.977 10.878 106.897 11.2233C107.818 11.5399 108.639 11.9859 109.358 12.5615C109.358 12.3313 109.358 12.1154 109.358 11.914C109.358 11.7125 109.358 11.5111 109.358 11.3097C110.538 11.3097 111.732 11.3097 112.941 11.3097C114.149 11.3097 115.329 11.3097 116.48 11.3097C116.48 14.9932 116.48 18.7199 116.48 22.4898C116.48 26.2309 116.48 29.9432 116.48 33.6268C115.329 33.6268 114.149 33.6268 112.941 33.6268C111.732 33.6268 110.538 33.6268 109.358 33.6268ZM104.955 27.9288C106.336 27.9288 107.444 27.4252 108.279 26.418C109.113 25.4108 109.531 24.087 109.531 22.4466C109.531 20.8063 109.113 19.4969 108.279 18.5185C107.444 17.5113 106.336 17.0076 104.955 17.0076C103.545 17.0076 102.423 17.4969 101.588 18.4753C100.782 19.4538 100.379 20.7775 100.379 22.4466C100.379 24.1158 100.782 25.4539 101.588 26.4611C102.423 27.4396 103.545 27.9288 104.955 27.9288Z" fill="rgb(246,248,251)" fill-rule="nonzero" />
	<path id="Vector" d="M70.5674 33.6268C70.5674 28.418 70.5674 23.166 70.5674 17.8709C70.5674 12.5758 70.5674 7.32388 70.5674 2.11511C71.7473 2.11511 72.9416 2.11511 74.1502 2.11511C75.3589 2.11511 76.5388 2.11511 77.6899 2.11511C77.6899 3.813 77.6899 5.53967 77.6899 7.29511C77.6899 9.02177 77.6899 10.734 77.6899 12.4319C78.4669 11.8852 79.3302 11.4679 80.2799 11.1801C81.2583 10.8635 82.3087 10.7053 83.431 10.7053C85.0714 10.7053 86.5103 11.0794 87.7477 11.8276C89.0139 12.5758 89.9924 13.655 90.683 15.0651C91.4025 16.4464 91.7622 18.1155 91.7622 20.0724C91.7622 22.3171 91.7622 24.5761 91.7622 26.8496C91.7622 29.123 91.7622 31.3821 91.7622 33.6268C90.6111 33.6268 89.4312 33.6268 88.2225 33.6268C87.0139 33.6268 85.8196 33.6268 84.6397 33.6268C84.6397 31.5548 84.6397 29.454 84.6397 27.3244C84.6397 25.1949 84.6397 23.0941 84.6397 21.0221C84.6397 19.871 84.3663 18.9501 83.8195 18.2594C83.3015 17.54 82.467 17.1803 81.3159 17.1803C80.1648 17.1803 79.2727 17.5112 78.6395 18.1731C78.0064 18.835 77.6899 19.7847 77.6899 21.0221C77.6899 23.0941 77.6899 25.1949 77.6899 27.3244C77.6899 29.454 77.6899 31.5548 77.6899 33.6268C76.5388 33.6268 75.3589 33.6268 74.1502 33.6268C72.9416 33.6268 71.7473 33.6268 70.5674 33.6268Z" fill="rgb(246,248,251)" fill-rule="nonzero" />
	<path id="Vector" d="M47.6328 33.6268C47.6328 28.418 47.6328 23.166 47.6328 17.8709C47.6328 12.5758 47.6328 7.32388 47.6328 2.11511C48.8127 2.11511 50.007 2.11511 51.2156 2.11511C52.4243 2.11511 53.6042 2.11511 54.7553 2.11511C54.7553 4.93533 54.7553 7.79872 54.7553 10.7053C54.7553 13.6118 54.7553 16.4752 54.7553 19.2954C55.7913 17.9717 56.8273 16.6479 57.8633 15.3241C58.8993 13.9715 59.9353 12.6334 60.9713 11.3096C62.3526 11.3096 63.734 11.3096 65.1153 11.3096C66.5254 11.3096 67.9211 11.3096 69.3025 11.3096C67.9499 13.0075 66.5686 14.7198 65.1585 16.4464C63.7771 18.1731 62.4102 19.8854 61.0576 21.5833C62.4965 23.5689 63.9354 25.5834 65.3743 27.6266C66.842 29.641 68.2809 31.6411 69.691 33.6268C68.2809 33.6268 66.8707 33.6268 65.4606 33.6268C64.0505 33.6268 62.6404 33.6268 61.2303 33.6268C60.1655 32.1015 59.0864 30.5619 57.9928 29.0079C56.8993 27.4251 55.8201 25.8711 54.7553 24.3459C54.7553 25.8711 54.7553 27.4251 54.7553 29.0079C54.7553 30.5619 54.7553 32.1015 54.7553 33.6268C53.6042 33.6268 52.4243 33.6268 51.2156 33.6268C50.007 33.6268 48.8127 33.6268 47.6328 33.6268Z" fill="rgb(246,248,251)" fill-rule="nonzero" />
	<path id="Vector" d="M44.4058 11.3097C44.4058 14.9932 44.4058 18.72 44.4058 22.4898C44.4058 26.231 44.4058 29.9433 44.4058 33.6268C43.2546 33.6268 42.0748 33.6268 40.8661 33.6268C39.6574 33.6268 38.4631 33.6268 37.2833 33.6268C37.2833 33.4254 37.2833 33.2383 37.2833 33.0657C37.2833 32.893 37.2833 32.7059 37.2833 32.5045C36.5063 33.0513 35.6285 33.4686 34.6501 33.7563C33.7004 34.0729 32.6644 34.2312 31.5421 34.2312C29.9018 34.2312 28.4485 33.8571 27.1823 33.1088C25.9448 32.3606 24.9664 31.2815 24.2469 29.8713C23.5563 28.4612 23.2109 26.7921 23.2109 24.864C23.2109 22.6193 23.2109 20.3603 23.2109 18.0869C23.2109 15.8134 23.2109 13.5544 23.2109 11.3097C24.3908 11.3097 25.5851 11.3097 26.7938 11.3097C28.0024 11.3097 29.1823 11.3097 30.3334 11.3097C30.3334 13.3817 30.3334 15.4825 30.3334 17.612C30.3334 19.7416 30.3334 21.8424 30.3334 23.9143C30.3334 25.0655 30.5924 26.0007 31.1104 26.7202C31.6572 27.4108 32.5062 27.7562 33.6573 27.7562C34.8084 27.7562 35.7005 27.4252 36.3336 26.7633C36.9667 26.1015 37.2833 25.1518 37.2833 23.9143C37.2833 21.8424 37.2833 19.7416 37.2833 17.612C37.2833 15.4825 37.2833 13.3817 37.2833 11.3097C38.4631 11.3097 39.6574 11.3097 40.8661 11.3097C42.0748 11.3097 43.2546 11.3097 44.4058 11.3097Z" fill="rgb(246,248,251)" fill-rule="nonzero" />
	<path id="Vector" d="M0 33.6267C0 28.7921 0 23.8999 0 18.9501C0 14.0003 0 9.1081 0 4.27344C1.78422 4.27344 3.56844 4.27344 5.35266 4.27344C7.16566 4.27344 8.94988 4.27344 10.7053 4.27344C12.691 4.27344 14.432 4.63316 15.9285 5.3526C17.4249 6.04327 18.5904 7.02171 19.425 8.28793C20.2595 9.52538 20.6768 10.993 20.6768 12.6909C20.6768 13.8996 20.4466 14.9931 19.9861 15.9716C19.5257 16.95 18.835 17.7702 17.9142 18.4321C19.1228 19.1515 20.0437 20.0868 20.6768 21.2379C21.3099 22.3603 21.6265 23.6121 21.6265 24.9934C21.6265 26.7201 21.1804 28.2309 20.2883 29.5259C19.425 30.8209 18.2019 31.8281 16.6192 32.5476C15.0652 33.267 13.2378 33.6267 11.137 33.6267C9.29521 33.6267 7.43905 33.6267 5.56849 33.6267C3.69794 33.6267 1.84178 33.6267 0 33.6267ZM13.1227 13.4248C13.1227 12.6765 12.8924 12.0722 12.432 11.6118C11.9715 11.1225 11.3672 10.8779 10.619 10.8779C10.101 10.8779 9.5686 10.8779 9.02183 10.8779C8.50383 10.8779 7.98583 10.8779 7.46783 10.8779C7.46783 11.6837 7.46783 12.5183 7.46783 13.3816C7.46783 14.2162 7.46783 15.0507 7.46783 15.8853C7.98583 15.8853 8.50383 15.8853 9.02183 15.8853C9.5686 15.8853 10.101 15.8853 10.619 15.8853C11.3672 15.8853 11.9715 15.6694 12.432 15.2378C12.8924 14.7773 13.1227 14.173 13.1227 13.4248ZM14.0723 24.3028C14.0723 23.497 13.7989 22.8639 13.2522 22.4034C12.7342 21.9142 12.0147 21.6696 11.0938 21.6696C10.4895 21.6696 9.88516 21.6696 9.28082 21.6696C8.67649 21.6696 8.07216 21.6696 7.46783 21.6696C7.46783 22.5617 7.46783 23.4538 7.46783 24.3459C7.46783 25.238 7.46783 26.1301 7.46783 27.0222C8.07216 27.0222 8.67649 27.0222 9.28082 27.0222C9.88516 27.0222 10.4895 27.0222 11.0938 27.0222C12.0147 27.0222 12.7342 26.7776 13.2522 26.2884C13.7989 25.7992 14.0723 25.1373 14.0723 24.3028Z" fill="rgb(246,248,251)" fill-rule="nonzero" />
</svg>
